<?xml version="1.0" encoding="utf-8"?>
<!-- Generator: Adobe Illustrator 19.0.0, SVG Export Plug-In . SVG Version: 6.00 Build 0)  -->
<svg version="1.1" id="Layer_4" xmlns="http://www.w3.org/2000/svg" xmlns:xlink="http://www.w3.org/1999/xlink" x="0px" y="0px"
	 viewBox="207 -0.6 839 200" style="enable-background:new 207 -0.6 839 200;" xml:space="preserve">
<style type="text/css">
	.st0{fill:#FAFAFA;}
	.st1{fill:#1DBFA2;}
	.st2{fill:#3F7AFE;}
	.st3{fill:#4DBEFE;}
	.st4{fill:#28EBAE;}
	.st5{fill:#FFFFFF;}
</style>
<g id="XMLID_7_">
	<g>
		<path class="st0" d="M559.3,181.9h-45v-79.6h45v11h-32v21.6h30v10.9h-30v25h32V181.9z"/>
		<path class="st0" d="M615.5,164.7c0,5.9-2.1,10.4-6.4,13.5c-4.3,3.1-10.4,4.7-18.4,4.7s-14.5-1.2-19.3-3.6v-11
			c7.1,3.3,13.7,4.9,19.7,4.9c7.9,0,11.8-2.4,11.8-7.1c0-1.5-0.4-2.8-1.3-3.8s-2.3-2.1-4.3-3.2s-4.8-2.3-8.3-3.7
			c-6.9-2.7-11.6-5.4-14.1-8.1s-3.7-6.2-3.7-10.4c0-5.1,2.1-9.1,6.2-12c4.1-2.9,9.8-4.3,16.9-4.3s13.8,1.4,20.1,4.3l-4.1,9.6
			c-6.5-2.7-11.9-4-16.4-4c-6.7,0-10.1,1.9-10.1,5.8c0,1.9,0.9,3.5,2.6,4.8c1.8,1.3,5.6,3.1,11.5,5.4c5,1.9,8.6,3.7,10.8,5.3
			s3.9,3.4,5,5.5S615.5,161.8,615.5,164.7z"/>
		<path class="st0" d="M641.8,150.1l7.2-9l18.2-19.4h14.7l-24.2,25.8l25.7,34.3h-15l-19.3-26.4l-7,5.8v20.6h-12.8V97.2H642v41.3
			l-0.7,11.6L641.8,150.1L641.8,150.1z"/>
		<path class="st0" d="M692.3,105.8c0-2.3,0.6-4,1.9-5.3s3-1.8,5.4-1.8c2.2,0,4,0.6,5.2,1.8c1.3,1.2,1.9,3,1.9,5.3
			c0,2.2-0.6,3.9-1.9,5.1c-1.3,1.3-3,1.9-5.2,1.9c-2.3,0-4.1-0.6-5.4-1.9C693.1,109.7,692.3,107.9,692.3,105.8z M705.8,181.9H693
			v-60.2h12.8V181.9z"/>
		<path class="st0" d="M764.6,164.7c0,5.9-2.1,10.4-6.4,13.5s-10.4,4.7-18.4,4.7s-14.5-1.2-19.3-3.6v-11c7.1,3.3,13.7,4.9,19.7,4.9
			c7.9,0,11.8-2.4,11.8-7.1c0-1.5-0.4-2.8-1.3-3.8c-0.9-1-2.3-2.1-4.3-3.2s-4.8-2.3-8.3-3.7c-6.9-2.7-11.6-5.4-14.1-8.1
			c-2.4-2.7-3.7-6.2-3.7-10.4c0-5.1,2.1-9.1,6.2-12c4.1-2.9,9.8-4.3,16.9-4.3c7.1,0,13.8,1.4,20.1,4.3l-4.1,9.6
			c-6.5-2.7-11.9-4-16.4-4c-6.7,0-10.1,1.9-10.1,5.8c0,1.9,0.9,3.5,2.6,4.8c1.8,1.3,5.6,3.1,11.5,5.4c5,1.9,8.6,3.7,10.8,5.3
			s3.9,3.4,5,5.5C764.1,159.3,764.6,161.8,764.6,164.7z"/>
		<path class="st0" d="M804.6,183c-9.4,0-16.7-2.7-21.9-8.2c-5.3-5.5-7.9-13-7.9-22.5c0-9.8,2.4-17.6,7.3-23.2
			c4.9-5.6,11.6-8.4,20.2-8.4c7.9,0,14.2,2.4,18.8,7.2s6.9,11.5,6.9,19.9v6.9h-40.1c0.2,5.8,1.8,10.3,4.7,13.5s7.2,4.7,12.6,4.7
			c3.6,0,6.9-0.3,9.9-1s6.4-1.8,9.9-3.3V179c-3.1,1.5-6.3,2.5-9.5,3.2C812.3,182.6,808.8,183,804.6,183z M802.3,130.3
			c-4.1,0-7.3,1.3-9.8,3.9c-2.4,2.6-3.9,6.3-4.4,11.3h27.2c-0.1-5-1.3-8.7-3.6-11.3C809.6,131.6,806.3,130.3,802.3,130.3z"/>
		<path class="st0" d="M895.5,181.9h-12.8v-37c0-4.6-0.9-8.1-2.8-10.4c-1.9-2.3-4.8-3.4-8.9-3.4c-5.4,0-9.3,1.6-11.8,4.8
			s-3.8,8.6-3.8,16.1v29.9h-12.8V97.3h12.8v21.5c0,3.4-0.2,7.1-0.7,11h0.8c1.7-2.9,4.2-5.1,7.3-6.7s6.7-2.4,10.9-2.4
			c14.6,0,21.9,7.3,21.9,22L895.5,181.9L895.5,181.9z"/>
		<path class="st0" d="M912.5,105.8c0-2.3,0.6-4,1.9-5.3c1.3-1.2,3-1.8,5.4-1.8c2.2,0,4,0.6,5.2,1.8c1.3,1.2,1.9,3,1.9,5.3
			c0,2.2-0.6,3.9-1.9,5.1c-1.3,1.3-3,1.9-5.2,1.9c-2.3,0-4.1-0.6-5.4-1.9C913.1,109.7,912.5,107.9,912.5,105.8z M926.1,181.9h-12.8
			v-60.2h12.8V181.9z"/>
		<path class="st0" d="M974.8,120.6c2.6,0,4.7,0.2,6.4,0.5l-1.3,11.9c-1.8-0.4-3.7-0.7-5.7-0.7c-5.1,0-9.3,1.7-12.4,5
			c-3.1,3.3-4.8,7.7-4.8,13v31.4h-12.7v-60.2h10l1.7,10.6h0.7c2-3.6,4.6-6.4,7.8-8.5C967.6,121.7,971.3,120.6,974.8,120.6z"/>
	</g>
</g>
<g id="_x34_PvbqU.tif">
	<g>
		<path class="st1" d="M435.3,1.4c5.6,2.6,6.8,7.1,6.8,12.9c-0.1,57.1-0.1,114.3-0.1,171.4c0,7.9-3.7,11.7-11.5,11.7
			c-15.8,0-31.5,0-47.3,0.1c-2.2,0-2.9-0.5-2.8-2.8c0.2-5.5,0.2-11,0-16.4c-0.1-2.7,0.9-3.1,3.2-3c11,0.1,21.9,0,32.9,0.1
			c2.3,0,3.1-0.4,3.1-2.9c-0.1-48.4-0.1-96.9,0-145.3c0-2.3-0.5-3.1-3-3c-11,0.1-22.1,0-33.1,0.1c-2.3,0-3.1-0.5-3-2.9
			c0.2-6.6,0-13.2,0-19.8C398.6,1.4,416.9,1.4,435.3,1.4z"/>
		<path class="st2" d="M273.8,1.4c0,6.7-0.1,13.4,0,20.1c0,2-0.6,2.7-2.7,2.7c-11.2-0.1-22.5,0-33.7-0.1c-2.1,0-2.7,0.6-2.7,2.7
			c0.1,48.5,0.1,97.1,0,145.6c0,2.3,0.6,2.9,2.9,2.9c11.1-0.1,22.3,0,33.4-0.1c2.1,0,3,0.5,2.9,2.8c-0.2,5.6-0.2,11.1,0,16.7
			c0.1,2.4-0.8,2.7-2.9,2.7c-16.1-0.1-32.3,0-48.4,0c-5.4,0-8.6-2.5-10-7.7c-0.3-1.1-0.2-2.3-0.2-3.4c0-58.1,0-116.1,0-174.2
			c0-1.1,0.3-2.3-0.3-3.3c0-0.2,0-0.4,0-0.6c0.9-3.7,2.8-6.3,6.8-6.8C237.1,1.4,255.4,1.4,273.8,1.4z"/>
		<path class="st3" d="M327,92.1c-4,6.1-7.2,12.8-10.7,19.2c-8,14.6-15.9,29.3-23.8,44c-0.8,1.5-1.7,2.2-3.5,2.1
			c-10.2-0.1-20.4-0.1-30.6,0c-2.1,0-2.7-0.6-2.7-2.7c0.1-36.9,0-73.8,0.1-110.7c0-0.7-0.3-1.5,0.4-2.1c1.3,1.4,0.8,3,0.8,4.6
			c0,34.4,0,68.8,0,103.3c0,0.9-0.1,1.9,0.1,3.1c3.9-7.1,7.6-13.9,11.4-20.8c6.9-12.8,13.7-25.6,20.8-38.3c0.7-1.2,1.3-2.3,2.5-3
			c4-7.3,8-14.6,12.1-21.9c1.4-2.6,2.9-5.3,4.3-7.9c0.6-1.2,1.4-1.8,2.8-1.8c10.8,0.1,21.6,0,32.5,0.1c0.4,0,0.7,0.1,1.1,0.2
			c0.3,1.7-0.7,2.9-1.4,4.2c-4.8,8.6-9.4,17.3-14.1,26C328.6,90.5,328,91.5,327,92.1z"/>
		<path class="st4" d="M327,92.1c4.9-9.1,9.8-18.2,14.6-27.3c1-1.8,2-3.6,3-5.5c3.2,4.3,5.3,9.2,7.9,13.8c3.2,5.6,6.1,11.4,9.1,17.2
			c0.3,0.5,0.6,0.6,1.1,0.6c1.6,1,2.2,2.8,3,4.3c10.3,19.1,20.7,38.1,31.2,57.6c0.2-1.2,0.1-2.1,0.1-3.1c0-34.4,0-68.9,0-103.3
			c0-1.6-0.4-3.2,0.8-4.6c0.6,0.8,0.3,1.8,0.3,2.7c0,36.5,0,73,0.1,109.6c0,2.6-0.7,3.3-3.3,3.3c-10-0.1-20,0-30,0
			c-1.7,0-2.6-0.6-3.4-2.1c-10.9-20.4-22-40.7-33-61C328.2,93.5,327.9,92.6,327,92.1z"/>
		<path class="st2" d="M291.8,90.7c-11.7,21.5-23.4,43-35,64.5c-0.2,0-0.4,0-0.6-0.1c0-37.8,0-75.5,0-113.3
			c6.9-0.5,13.7-0.1,20.6-0.2c3.9-0.1,7.7,0.1,11.6-0.1c2.3-0.1,3,0.6,3,3c-0.1,14.4-0.1,28.9,0,43.3
			C291.4,88.8,290.9,89.9,291.8,90.7z"/>
		<path class="st1" d="M397.9,41.9c0,36.7,0,73.4,0,110.1c0,1,0,2-0.5,3.3c-1.7-3-3.4-6.1-5-9.1c-9.5-17.4-18.9-34.9-28.4-52.3
			c-0.5-0.9-0.8-1.9-1.2-2.8c0-15.7,0-31.5-0.1-47.2c0-1-0.3-2.1,1.4-2.1C375.3,41.8,386.6,41.4,397.9,41.9z"/>
	</g>
</g>
<g>
	<path class="st5" d="M488,61.7l5.7-30.2h8.7L493,74h-8.8l-6.9-28.4L470.4,74h-8.8l-9.4-42.4h8.7l5.7,30.1l7-30.1h7.4L488,61.7z"/>
	<path class="st5" d="M504.3,57.9c0-3.1,0.6-5.9,1.8-8.4c1.2-2.4,2.9-4.3,5.2-5.7c2.3-1.3,4.9-2,7.9-2c4.3,0,7.7,1.3,10.4,3.9
		c2.7,2.6,4.2,6.1,4.5,10.6l0.1,2.2c0,4.8-1.4,8.7-4.1,11.6c-2.7,2.9-6.3,4.4-10.9,4.4s-8.2-1.5-10.9-4.4c-2.7-2.9-4.1-6.9-4.1-11.9
		V57.9z M512.8,58.5c0,3,0.6,5.3,1.7,6.9c1.1,1.6,2.7,2.4,4.8,2.4c2,0,3.6-0.8,4.8-2.4c1.1-1.6,1.7-4.1,1.7-7.5
		c0-2.9-0.6-5.2-1.7-6.8c-1.1-1.6-2.8-2.4-4.8-2.4c-2.1,0-3.7,0.8-4.8,2.4C513.3,52.7,512.8,55.1,512.8,58.5z"/>
	<path class="st5" d="M547.3,42.4l0.3,3.5c2.2-2.7,5.3-4.1,9.1-4.1c4.1,0,6.9,1.6,8.4,4.8c2.2-3.2,5.4-4.8,9.5-4.8c3.4,0,6,1,7.6,3
		c1.7,2,2.5,5,2.5,9V74h-8.5V53.8c0-1.8-0.3-3.1-1-3.9c-0.7-0.8-1.9-1.2-3.7-1.2c-2.5,0-4.3,1.2-5.2,3.6l0,21.7h-8.4V53.8
		c0-1.8-0.4-3.2-1.1-4c-0.7-0.8-1.9-1.2-3.7-1.2c-2.4,0-4.1,1-5.2,3V74h-8.4V42.4H547.3z"/>
	<path class="st5" d="M605.6,74.6c-4.6,0-8.4-1.4-11.3-4.3c-2.9-2.8-4.4-6.6-4.4-11.3v-0.8c0-3.2,0.6-6,1.8-8.5
		c1.2-2.5,3-4.4,5.2-5.8c2.2-1.4,4.8-2,7.7-2c4.3,0,7.7,1.4,10.2,4.1c2.5,2.7,3.7,6.6,3.7,11.6v3.4h-20.1c0.3,2.1,1.1,3.7,2.5,5
		c1.4,1.2,3.1,1.9,5.2,1.9c3.2,0,5.8-1.2,7.6-3.5l4.1,4.6c-1.3,1.8-3,3.2-5.1,4.2S608.2,74.6,605.6,74.6z M604.7,48.6
		c-1.7,0-3,0.6-4.1,1.7c-1,1.1-1.7,2.8-2,4.9h11.7v-0.7c0-1.9-0.5-3.3-1.5-4.3C607.8,49.2,606.4,48.6,604.7,48.6z"/>
	<path class="st5" d="M631.1,42.4l0.3,3.6c2.3-2.8,5.3-4.2,9.1-4.2c3.3,0,5.8,1,7.5,2.9c1.6,2,2.5,4.9,2.5,8.8V74H642V53.8
		c0-1.8-0.4-3.1-1.2-3.9c-0.8-0.8-2.1-1.2-3.9-1.2c-2.4,0-4.1,1-5.3,3V74h-8.4V42.4H631.1z"/>
	<path class="st5" d="M702.4,38.6h-13V74h-8.7V38.6h-12.8v-7.1h34.6V38.6z"/>
	<path class="st5" d="M718.8,74.6c-4.6,0-8.4-1.4-11.3-4.3c-2.9-2.8-4.4-6.6-4.4-11.3v-0.8c0-3.2,0.6-6,1.8-8.5
		c1.2-2.5,3-4.4,5.2-5.8c2.2-1.4,4.8-2,7.7-2c4.3,0,7.7,1.4,10.2,4.1c2.5,2.7,3.7,6.6,3.7,11.6v3.4h-20.1c0.3,2.1,1.1,3.7,2.5,5
		c1.4,1.2,3.1,1.9,5.2,1.9c3.2,0,5.8-1.2,7.6-3.5l4.1,4.6c-1.3,1.8-3,3.2-5.1,4.2S721.4,74.6,718.8,74.6z M717.8,48.6
		c-1.7,0-3,0.6-4.1,1.7c-1,1.1-1.7,2.8-2,4.9h11.7v-0.7c0-1.9-0.5-3.3-1.5-4.3C721,49.2,719.6,48.6,717.8,48.6z"/>
	<path class="st5" d="M749.7,67.8c1.6,0,2.8-0.4,3.8-1.3c1-0.9,1.5-2,1.5-3.4h7.9c0,2.1-0.6,4.1-1.7,5.9c-1.1,1.8-2.7,3.2-4.7,4.1
		c-2,1-4.2,1.5-6.6,1.5c-4.5,0-8.1-1.4-10.7-4.3c-2.6-2.9-3.9-6.8-3.9-11.9v-0.6c0-4.9,1.3-8.7,3.9-11.6c2.6-2.9,6.1-4.3,10.6-4.3
		c3.9,0,7.1,1.1,9.5,3.4c2.4,2.2,3.6,5.2,3.6,9H755c0-1.6-0.5-3-1.5-4c-1-1-2.3-1.5-3.8-1.5c-2,0-3.4,0.7-4.4,2.1
		c-1,1.4-1.5,3.8-1.5,7v0.9c0,3.3,0.5,5.6,1.5,7C746.1,67.1,747.6,67.8,749.7,67.8z"/>
	<path class="st5" d="M775.9,45.9c2.2-2.7,5-4,8.4-4c6.8,0,10.3,4,10.4,11.9V74h-8.4V54c0-1.8-0.4-3.2-1.2-4
		c-0.8-0.9-2.1-1.3-3.9-1.3c-2.5,0-4.3,1-5.4,2.9V74h-8.4V29.2h8.4V45.9z"/>
	<path class="st5" d="M809,42.4l0.3,3.5c2.2-2.7,5.3-4.1,9.1-4.1c4.1,0,6.9,1.6,8.4,4.8c2.2-3.2,5.4-4.8,9.5-4.8c3.4,0,6,1,7.6,3
		c1.7,2,2.5,5,2.5,9V74h-8.5V53.8c0-1.8-0.3-3.1-1-3.9c-0.7-0.8-1.9-1.2-3.7-1.2c-2.5,0-4.3,1.2-5.2,3.6l0,21.7h-8.4V53.8
		c0-1.8-0.4-3.2-1.1-4c-0.7-0.8-1.9-1.2-3.7-1.2c-2.4,0-4.1,1-5.2,3V74h-8.4V42.4H809z"/>
	<path class="st5" d="M871,74c-0.4-0.8-0.7-1.7-0.8-2.8c-2,2.3-4.7,3.4-8,3.4c-3.1,0-5.7-0.9-7.7-2.7c-2-1.8-3-4-3-6.8
		c0-3.3,1.2-5.9,3.7-7.7c2.5-1.8,6.1-2.7,10.7-2.7h3.9v-1.8c0-1.5-0.4-2.6-1.1-3.5c-0.7-0.9-1.9-1.3-3.5-1.3c-1.4,0-2.5,0.3-3.3,1
		c-0.8,0.7-1.2,1.6-1.2,2.8h-8.4c0-1.8,0.6-3.5,1.7-5.1c1.1-1.6,2.7-2.8,4.8-3.7c2.1-0.9,4.4-1.3,6.9-1.3c3.9,0,7,1,9.3,2.9
		c2.3,2,3.4,4.7,3.4,8.2v13.7c0,3,0.4,5.3,1.3,6.8V74H871z M864.1,68.1c1.2,0,2.4-0.3,3.4-0.8c1-0.6,1.8-1.3,2.3-2.2v-5.4h-3.1
		c-4.2,0-6.5,1.5-6.7,4.4l0,0.5c0,1,0.4,1.9,1.1,2.6C861.8,67.8,862.8,68.1,864.1,68.1z"/>
	<path class="st5" d="M896.2,61.3l-3,3V74h-8.4V29.2h8.4V54l1.6-2.1l8.1-9.5H913l-11.4,13.1L914,74h-9.7L896.2,61.3z"/>
	<path class="st5" d="M930.6,74.6c-4.6,0-8.4-1.4-11.3-4.3c-2.9-2.8-4.4-6.6-4.4-11.3v-0.8c0-3.2,0.6-6,1.8-8.5
		c1.2-2.5,3-4.4,5.2-5.8c2.2-1.4,4.8-2,7.7-2c4.3,0,7.7,1.4,10.2,4.1c2.5,2.7,3.7,6.6,3.7,11.6v3.4h-20.1c0.3,2.1,1.1,3.7,2.5,5
		c1.4,1.2,3.1,1.9,5.2,1.9c3.2,0,5.8-1.2,7.6-3.5l4.1,4.6c-1.3,1.8-3,3.2-5.1,4.2S933.2,74.6,930.6,74.6z M929.6,48.6
		c-1.7,0-3,0.6-4.1,1.7c-1,1.1-1.7,2.8-2,4.9h11.7v-0.7c0-1.9-0.5-3.3-1.5-4.3C932.8,49.2,931.4,48.6,929.6,48.6z"/>
	<path class="st5" d="M966.1,50.3c-1.1-0.2-2.2-0.2-3-0.2c-3.2,0-5.3,1.1-6.3,3.2V74h-8.4V42.4h8l0.2,3.8c1.7-2.9,4-4.3,7-4.3
		c0.9,0,1.8,0.1,2.6,0.4L966.1,50.3z"/>
	<path class="st5" d="M987.2,65.3c0-1-0.5-1.8-1.5-2.4c-1-0.6-2.7-1.1-4.9-1.6c-7.5-1.6-11.3-4.8-11.3-9.6c0-2.8,1.2-5.1,3.5-7
		c2.3-1.9,5.4-2.8,9.1-2.8c4,0,7.2,0.9,9.6,2.8c2.4,1.9,3.6,4.3,3.6,7.3h-8.4c0-1.2-0.4-2.2-1.2-3c-0.8-0.8-2-1.2-3.6-1.2
		c-1.4,0-2.5,0.3-3.3,1c-0.8,0.6-1.2,1.5-1.2,2.4c0,0.9,0.4,1.7,1.3,2.3c0.9,0.6,2.4,1.1,4.5,1.5c2.1,0.4,3.9,0.9,5.3,1.4
		c4.4,1.6,6.7,4.5,6.7,8.5c0,2.9-1.2,5.2-3.7,7c-2.5,1.8-5.7,2.7-9.6,2.7c-2.6,0-5-0.5-7-1.4c-2.1-0.9-3.7-2.2-4.8-3.9
		c-1.2-1.6-1.7-3.4-1.7-5.3h8c0.1,1.5,0.6,2.6,1.7,3.4c1,0.8,2.4,1.2,4.1,1.2c1.6,0,2.8-0.3,3.7-0.9
		C986.8,67.1,987.2,66.3,987.2,65.3z"/>
</g>
</svg>
