<?xml version="1.0" encoding="utf-8"?>
<!-- Generator: Adobe Illustrator 19.0.0, SVG Export Plug-In . SVG Version: 6.00 Build 0)  -->
<svg version="1.1" id="Layer_4" xmlns="http://www.w3.org/2000/svg" xmlns:xlink="http://www.w3.org/1999/xlink" x="0px" y="0px"
	 viewBox="207 -0.6 839 200" style="enable-background:new 207 -0.6 839 200;" xml:space="preserve">
<style type="text/css">
	.st0{fill:#FFFFFF;}
</style>
<g id="XMLID_261_">
	<path id="XMLID_259_" class="st0" d="M239.3-0.6H207l92.3,160l16.2-28L239.3-0.6z"/>
	<path id="XMLID_258_" class="st0" d="M327.9,90.4l-52.6-91h-32.2l74.3,128.8l10.5-18.2c1.7-2.8,2.8-6.2,2.8-9.8
		C330.6,96.6,329.6,93.3,327.9,90.4z"/>
	<path id="XMLID_257_" class="st0" d="M263.3,103.5l-55.4,95.9h32.3l39.3-68L263.3,103.5z"/>
	<path id="XMLID_256_" class="st0" d="M281.3,134.7L244,199.4h32.2l21.3-36.8L281.3,134.7z"/>
</g>
<g id="XMLID_7_">
	<path id="XMLID_2_" class="st0" d="M480.3,47.4c0,10.9-3.2,19.7-9.7,26.1c-7.4,7.7-17,11.6-28.8,11.6c-11.3,0-20.9-3.9-28.8-11.8
		c-7.9-7.8-11.9-17.6-11.9-29.1s4-21.3,11.9-29.1s17.5-11.8,28.8-11.8c5.6,0,11,1.1,16.1,3.3s9.2,5.1,12.2,8.8l-6.9,6.9
		c-5.2-6.2-12.3-9.3-21.4-9.3c-8.2,0-15.4,2.9-21.4,8.7s-9,13.3-9,22.6s3,16.8,9,22.6s13.1,8.7,21.4,8.7c8.8,0,16-2.9,21.9-8.8
		c3.8-3.8,6-9.1,6.6-15.9h-28.5v-9.4h38C480.1,43.6,480.3,45.5,480.3,47.4L480.3,47.4z"/>
	<path id="XMLID_4_" class="st0" d="M490.2,83.4V5.1h24c12,0,21.7,3.6,28.9,10.9s10.8,16.7,10.8,28.3s-3.6,21-10.8,28.3
		s-16.8,10.9-28.9,10.9L490.2,83.4L490.2,83.4z M500.3,73.8h13.9c9,0,16.2-2.6,21.5-7.8c5.3-5.2,7.9-12.4,7.9-21.8
		c0-9.3-2.6-16.5-7.9-21.7c-5.3-5.2-12.5-7.8-21.5-7.8h-13.9C500.3,14.7,500.3,73.8,500.3,73.8z"/>
	<path id="XMLID_8_" class="st0" d="M639.3,47.4c0,10.9-3.2,19.7-9.7,26.1c-7.4,7.7-17,11.6-28.8,11.6c-11.3,0-20.9-3.9-28.8-11.8
		c-7.9-7.8-11.9-17.6-11.9-29.1s4-21.3,11.9-29.1s17.5-11.8,28.8-11.8c5.6,0,11,1.1,16.1,3.3s9.2,5.1,12.2,8.8l-6.9,6.9
		c-5.2-6.2-12.3-9.3-21.4-9.3c-8.2,0-15.4,2.9-21.4,8.7s-9,13.3-9,22.6s3,16.8,9,22.6s13.1,8.7,21.4,8.7c8.8,0,16-2.9,21.9-8.8
		c3.8-3.8,6-9.1,6.6-15.9h-28.5v-9.4h38C639.1,43.6,639.3,45.5,639.3,47.4L639.3,47.4z"/>
	<path id="XMLID_10_" class="st0" d="M675.6,83.4V5.1h24c12,0,21.7,3.6,28.9,10.9s10.8,16.7,10.8,28.3s-3.6,21-10.8,28.3
		s-16.8,10.9-28.9,10.9L675.6,83.4L675.6,83.4z M685.7,73.8h13.9c9,0,16.2-2.6,21.5-7.8c5.3-5.2,7.9-12.4,7.9-21.8
		c0-9.3-2.6-16.5-7.9-21.7c-5.3-5.2-12.5-7.8-21.5-7.8h-13.9C685.7,14.7,685.7,73.8,685.7,73.8z"/>
	<path id="XMLID_13_" class="st0" d="M772.2,85.2c-8.1,0-14.7-2.7-19.7-8.1c-5.1-5.4-7.6-12.2-7.6-20.5c0-7.8,2.5-14.5,7.4-20.1
		s11.2-8.4,18.9-8.4c7.9,0,14.3,2.6,19.1,7.8s7.2,12.1,7.2,20.8l-0.1,1.9h-42.3c0.3,5.4,2.1,9.7,5.4,12.8c3.3,3.1,7.2,4.7,11.6,4.7
		c7.2,0,12.1-3.1,14.7-9.2l9,3.7c-1.8,4.2-4.6,7.6-8.6,10.4C783,83.8,778.1,85.2,772.2,85.2L772.2,85.2z M786.7,50.2
		c-0.2-3.1-1.6-6-4.2-8.8c-2.6-2.8-6.4-4.2-11.5-4.2c-3.7,0-6.9,1.2-9.7,3.5c-2.7,2.3-4.6,5.5-5.6,9.4L786.7,50.2L786.7,50.2z"/>
	<path id="XMLID_16_" class="st0" d="M818.5,83.4l-21.7-53.6h11l15.8,41.6h0.2l16-41.6h10.7l-21.9,53.6H818.5z"/>
	<path id="XMLID_18_" class="st0" d="M866.4,83.4h-10.1V5.1H902v9.6h-35.7v25.7h32.2v9.4h-32.2L866.4,83.4L866.4,83.4z"/>
	<path id="XMLID_20_" class="st0" d="M932.5,85.2c-8.1,0-14.7-2.7-19.7-8.1c-5.1-5.4-7.6-12.2-7.6-20.5c0-7.8,2.5-14.5,7.4-20.1
		s11.2-8.4,18.9-8.4c7.9,0,14.3,2.6,19.1,7.8s7.2,12.1,7.2,20.8l-0.1,1.9h-42.3c0.3,5.4,2.1,9.7,5.4,12.8s7.2,4.7,11.6,4.7
		c7.2,0,12.1-3.1,14.7-9.2l9,3.7c-1.8,4.2-4.6,7.6-8.6,10.4C943.2,83.8,938.3,85.2,932.5,85.2L932.5,85.2z M946.9,50.2
		c-0.2-3.1-1.6-6-4.2-8.8s-6.4-4.2-11.5-4.2c-3.7,0-6.9,1.2-9.7,3.5c-2.7,2.3-4.6,5.5-5.6,9.4L946.9,50.2L946.9,50.2z"/>
	<path id="XMLID_27_" class="st0" d="M984.3,85.2c-6,0-10.9-1.5-14.8-4.4s-6.8-6.6-8.6-10.9l9-3.7c2.8,6.7,7.7,10.1,14.5,10.1
		c3.1,0,5.7-0.7,7.7-2.1s3-3.2,3-5.5c0-3.5-2.4-5.9-7.3-7.1L977,59c-3.4-0.9-6.7-2.5-9.7-5c-3.1-2.4-4.6-5.7-4.6-9.9
		c0-4.7,2.1-8.6,6.3-11.5c4.2-3,9.2-4.4,14.9-4.4c4.7,0,9,1.1,12.7,3.2c3.7,2.2,6.4,5.2,8,9.2l-8.8,3.6c-2-4.7-6.1-7.1-12.2-7.1
		c-3,0-5.5,0.6-7.5,1.9c-2,1.2-3.1,2.9-3.1,5c0,3.1,2.4,5.1,7.1,6.2l10.6,2.5c5,1.2,8.8,3.2,11.2,6s3.6,6.1,3.6,9.6
		c0,4.8-2,8.8-5.9,12C995.6,83.6,990.5,85.2,984.3,85.2L984.3,85.2z"/>
	<path id="XMLID_29_" class="st0" d="M1035.7,84.3c-5.6,0-9.9-1.5-12.9-4.5s-4.4-7.2-4.4-12.7V39h-9.4v-9.2h9.4V13.4h10.1v16.4h13.1
		V39h-13.1v27.3c0,5.8,2.4,8.8,7.2,8.8c1.8,0,3.4-0.3,4.6-0.9l3.5,8.6C1041.6,83.8,1038.9,84.3,1035.7,84.3L1035.7,84.3z"/>
	<path id="XMLID_31_" class="st0" d="M427,188.3c-5.7,0-11.2-1.9-16.7-5.6c-5.4-3.7-9-8.9-10.7-15.6l9.2-3.7
		c1.1,4.3,3.3,7.9,6.7,10.9s7.2,4.4,11.4,4.4c4.4,0,8.1-1.1,11.2-3.4c3.1-2.3,4.6-5.4,4.6-9.4c0-4.4-1.6-7.7-4.6-10.1
		c-3.1-2.4-8-4.6-14.7-6.6c-6.9-2.2-12.2-5-15.8-8.5s-5.4-7.9-5.4-13.3c0-5.6,2.2-10.5,6.7-14.7c4.4-4.2,10.2-6.2,17.4-6.2
		c6.6,0,12,1.7,16.2,5s6.9,6.9,8.1,10.9l-9.2,3.8c-0.7-2.5-2.3-4.8-4.9-6.9c-2.6-2.1-5.9-3.2-10-3.2c-3.9,0-7.2,1.1-9.9,3.2
		c-2.7,2.2-4.1,4.8-4.1,8c0,2.9,1.3,5.4,3.8,7.4s6.2,3.8,11.1,5.4c3.9,1.2,7.1,2.4,9.7,3.6c2.6,1.2,5.2,2.7,7.9,4.6
		c2.7,1.9,4.7,4.3,6,7.2s2,6.2,2,10s-0.8,7.2-2.4,10.2s-3.6,5.4-6.2,7.1c-2.6,1.8-5.4,3.1-8.4,4C433.2,187.8,430.1,188.3,427,188.3
		L427,188.3z"/>
	<path id="XMLID_33_" class="st0" d="M486.2,188.3c-8.1,0-14.7-2.7-19.7-8.1c-5.1-5.4-7.6-12.2-7.6-20.5c0-7.8,2.5-14.5,7.4-20.1
		s11.2-8.4,18.9-8.4c7.9,0,14.3,2.6,19.1,7.8s7.2,12.1,7.2,20.8l-0.1,1.9h-42.3c0.3,5.4,2.1,9.7,5.4,12.8c3.3,3.1,7.2,4.7,11.6,4.7
		c7.2,0,12.1-3.1,14.7-9.2l9,3.7c-1.8,4.2-4.6,7.6-8.6,10.4C496.9,186.9,492,188.3,486.2,188.3L486.2,188.3z M500.6,153.3
		c-0.2-3.1-1.6-6-4.2-8.8s-6.4-4.2-11.5-4.2c-3.7,0-6.9,1.2-9.7,3.5c-2.7,2.3-4.6,5.5-5.6,9.4h31V153.3z"/>
	<path id="XMLID_36_" class="st0" d="M535.1,188.3c-5.7,0-10.4-1.6-14.3-4.9c-3.8-3.3-5.7-7.6-5.7-13c0-5.8,2.3-10.4,6.8-13.7
		s10.1-5,16.7-5c5.9,0,10.8,1.1,14.5,3.3v-1.5c0-3.9-1.3-7.1-4-9.5s-6-3.6-10-3.6c-2.9,0-5.6,0.7-7.9,2.1c-2.4,1.4-4,3.3-4.9,5.7
		l-9.2-3.9c1.2-3.2,3.7-6.2,7.3-8.9s8.5-4.1,14.4-4.1c6.9,0,12.5,2,17.1,6c4.5,4,6.8,9.7,6.8,17v32.4h-9.6v-7.4h-0.4
		C548.7,185.2,542.8,188.3,535.1,188.3L535.1,188.3z M536.8,179.1c4.2,0,7.9-1.5,11.3-4.6s5.1-6.8,5.1-11c-2.8-2.3-7.1-3.5-12.8-3.5
		c-4.9,0-8.6,1.1-11,3.2c-2.5,2.1-3.7,4.6-3.7,7.4c0,2.6,1.1,4.7,3.4,6.2C531.3,178.3,533.8,179.1,536.8,179.1L536.8,179.1z"/>
	<path id="XMLID_39_" class="st0" d="M591.8,188.3c-6,0-10.9-1.5-14.8-4.4s-6.8-6.6-8.6-10.9l9-3.7c2.8,6.7,7.7,10.1,14.5,10.1
		c3.1,0,5.7-0.7,7.7-2.1c2-1.4,3-3.2,3-5.5c0-3.5-2.4-5.9-7.3-7.1l-10.8-2.6c-3.4-0.9-6.7-2.5-9.7-5c-3.1-2.4-4.6-5.7-4.6-9.9
		c0-4.7,2.1-8.6,6.3-11.5c4.2-3,9.2-4.4,14.9-4.4c4.7,0,9,1.1,12.7,3.2c3.7,2.2,6.4,5.2,8,9.2l-8.8,3.6c-2-4.7-6.1-7.1-12.2-7.1
		c-3,0-5.5,0.6-7.5,1.9c-2,1.2-3.1,2.9-3.1,5c0,3.1,2.4,5.1,7.1,6.2l10.6,2.5c5,1.2,8.7,3.2,11.2,6c2.4,2.8,3.6,6.1,3.6,9.6
		c0,4.8-2,8.8-5.9,12C603,186.7,598,188.3,591.8,188.3L591.8,188.3z"/>
	<path id="XMLID_41_" class="st0" d="M624.5,139.3c5.2-5.4,11.8-8.1,19.8-8.1s14.6,2.7,19.8,8.1c5.2,5.4,7.8,12.2,7.8,20.4
		s-2.6,15-7.8,20.4s-11.8,8.1-19.8,8.1s-14.6-2.7-19.8-8.1c-5.2-5.4-7.8-12.2-7.8-20.4C616.7,151.6,619.3,144.8,624.5,139.3z
		 M632,173.8c3.5,3.5,7.6,5.3,12.3,5.3s8.8-1.8,12.3-5.3s5.2-8.2,5.2-14.1c0-5.8-1.7-10.5-5.2-14.1c-3.5-3.5-7.6-5.3-12.3-5.3
		s-8.8,1.8-12.3,5.3s-5.2,8.2-5.2,14.1S628.5,170.3,632,173.8z"/>
	<path id="XMLID_44_" class="st0" d="M688.6,132.9v7.4h0.4c1.5-2.6,3.8-4.7,6.9-6.5s6.5-2.7,10.1-2.7c6.6,0,11.7,2,15.2,6.1
		s5.2,9.6,5.2,16.4v32.8h-10.1v-31.3c0-9.9-4.4-14.9-13.2-14.9c-4.2,0-7.5,1.7-10.2,5c-2.6,3.3-3.9,7.2-3.9,11.5v29.6h-10.1v-53.6
		h9.7L688.6,132.9z"/>
	<path id="XMLID_46_" class="st0" d="M808.3,186.5h-47.7v-10.1c14.3-14.4,23.4-23.7,27.5-28.1c3.6-4,6-7.1,7.2-9.1
		c1.2-2.1,1.9-4.6,1.9-7.7c0-3.1-1.2-5.9-3.7-8.3s-5.8-3.6-10-3.6c-3.8,0-6.9,1.1-9.2,3.3s-3.8,4.6-4.5,7.2l-9.2-3.7
		c1.2-3.9,3.8-7.7,7.8-11.2c3.9-3.5,9-5.2,15.3-5.2c6.9,0,12.6,2.1,17.1,6.3c4.4,4.2,6.7,9.3,6.7,15.2c0,7.3-4,15.1-11.9,23.4
		l-21.9,22h34.7L808.3,186.5L808.3,186.5z"/>
	<path id="XMLID_48_" class="st0" d="M865.9,177c-5.5,7.5-12.8,11.3-21.8,11.3s-16.2-3.8-21.8-11.3c-5.5-7.5-8.3-16.8-8.3-27.9
		c0-11.2,2.8-20.5,8.3-27.9c5.5-7.5,12.8-11.2,21.8-11.2s16.2,3.7,21.8,11.2c5.5,7.5,8.3,16.8,8.3,27.9S871.4,169.5,865.9,177z
		 M844.1,178.7c6,0,10.8-2.8,14.4-8.4c3.6-5.6,5.4-12.6,5.4-21.1s-1.8-15.6-5.4-21.2s-8.4-8.4-14.4-8.4c-6.1,0-10.9,2.8-14.4,8.4
		c-3.6,5.6-5.4,12.6-5.4,21.2c0,8.5,1.8,15.5,5.4,21.1S838.1,178.7,844.1,178.7z"/>
	<path id="XMLID_51_" class="st0" d="M906.1,186.5H896v-62.3l-14.5,6.3l-3.8-8.5l22-10.3h6.5L906.1,186.5L906.1,186.5z"/>
	<g>
		<path class="st0" d="M962.4,111.7v6.5l-31.6,66h-10.2l31.5-64.1v-0.2h-35.5v-8.1L962.4,111.7L962.4,111.7L962.4,111.7z"/>
	</g>
</g>
</svg>
