<?xml version="1.0" encoding="utf-8"?>
<!-- Generator: Adobe Illustrator 19.0.0, SVG Export Plug-In . SVG Version: 6.00 Build 0)  -->
<svg version="1.1" id="Layer_4" xmlns="http://www.w3.org/2000/svg" xmlns:xlink="http://www.w3.org/1999/xlink" x="0px" y="0px"
	 viewBox="245 76 839 200" style="enable-background:new 245 76 839 200;" xml:space="preserve">
<style type="text/css">
	.st0{fill:#FAFAFA;}
</style>
<g id="XMLID_7_">
	<path id="XMLID_46_" class="st0" d="M923.2,242.3h-37.1v-7.9c11.1-11.2,18.2-18.4,21.4-21.8c2.8-3.1,4.7-5.5,5.6-7.1
		c1-1.7,1.5-3.6,1.5-6c0-2.4-1-4.6-2.9-6.4s-4.5-2.8-7.8-2.8c-2.9,0-5.4,0.9-7.1,2.5c-1.7,1.7-2.9,3.6-3.5,5.6l-7.1-2.9
		c1-3,2.9-6,6-8.7c3-2.7,7-4,11.9-4c5.4,0,9.8,1.7,13.3,4.9c3.4,3.3,5.2,7.2,5.2,11.8c0,5.6-3.1,11.8-9.2,18.2l-17,17.1h27
		L923.2,242.3L923.2,242.3z"/>
	<path id="XMLID_48_" class="st0" d="M968,234.9c-4.3,5.8-9.9,8.8-16.9,8.8c-7,0-12.6-2.9-16.9-8.8c-4.3-5.8-6.4-13-6.4-21.7
		c0-8.7,2.1-16,6.4-21.7c4.3-5.8,9.9-8.7,16.9-8.7c7,0,12.6,2.9,16.9,8.7c4.3,5.8,6.4,13,6.4,21.7S972.3,229,968,234.9z M951,236.2
		c4.7,0,8.4-2.1,11.2-6.5c2.8-4.4,4.2-9.8,4.2-16.4c0-6.7-1.4-12.1-4.2-16.4c-2.8-4.4-6.5-6.5-11.2-6.5c-4.8,0-8.5,2.1-11.2,6.5
		c-2.8,4.4-4.2,9.8-4.2,16.4c0,6.6,1.4,12.1,4.2,16.4C942.7,234,946.4,236.2,951,236.2z"/>
	<path id="XMLID_51_" class="st0" d="M999.2,242.3h-7.9v-48.4l-11.3,4.9l-2.9-6.6l17.1-8h5.1L999.2,242.3L999.2,242.3L999.2,242.3z"
		/>
	<g>
		<path class="st0" d="M518.7,240.4H483v-63.2h35.7v8.7h-25.4v17.1h23.8v8.7h-23.8v19.8h25.4V240.4z"/>
		<path class="st0" d="M563.4,226.8c0,4.7-1.7,8.3-5.1,10.7c-3.4,2.5-8.3,3.7-14.6,3.7s-11.5-1-15.3-2.9v-8.7
			c5.6,2.6,10.9,3.9,15.6,3.9c6.3,0,9.4-1.9,9.4-5.6c0-1.2-0.3-2.2-1-3c-0.7-0.8-1.8-1.7-3.4-2.5c-1.6-0.9-3.8-1.8-6.6-2.9
			c-5.5-2.1-9.2-4.3-11.2-6.4s-2.9-4.9-2.9-8.3c0-4,1.7-7.2,4.9-9.5c3.3-2.3,7.8-3.4,13.4-3.4s11,1.1,16,3.4l-3.3,7.6
			c-5.2-2.1-9.4-3.2-13-3.2c-5.3,0-8,1.5-8,4.6c0,1.5,0.7,2.8,2.1,3.8c1.4,1,4.4,2.5,9.1,4.3c4,1.5,6.8,2.9,8.6,4.2
			c1.7,1.3,3.1,2.7,4,4.4C562.8,222.6,563.4,224.5,563.4,226.8z"/>
		<path class="st0" d="M584.1,215.2l5.7-7.1l14.5-15.4H616l-19.2,20.5l20.4,27.2h-11.9l-15.3-21l-5.6,4.6v16.4h-10.1v-67.2h10.1V206
			l-0.6,9.2L584.1,215.2L584.1,215.2z"/>
		<path class="st0" d="M624.3,180c0-1.8,0.5-3.2,1.5-4.2c1-1,2.4-1.4,4.3-1.4c1.7,0,3.2,0.5,4.1,1.4c1,1,1.5,2.4,1.5,4.2
			c0,1.7-0.5,3.1-1.5,4c-1,1-2.4,1.5-4.1,1.5c-1.8,0-3.3-0.5-4.3-1.5C624.8,183.1,624.3,181.7,624.3,180z M635.1,240.4h-10.2v-47.8
			h10.2V240.4z"/>
		<path class="st0" d="M681.7,226.8c0,4.7-1.7,8.3-5.1,10.7c-3.4,2.5-8.3,3.7-14.6,3.7s-11.5-1-15.3-2.9v-8.7
			c5.6,2.6,10.9,3.9,15.6,3.9c6.3,0,9.4-1.9,9.4-5.6c0-1.2-0.3-2.2-1-3c-0.7-0.8-1.8-1.7-3.4-2.5c-1.6-0.9-3.8-1.8-6.6-2.9
			c-5.5-2.1-9.2-4.3-11.2-6.4c-1.9-2.1-2.9-4.9-2.9-8.3c0-4,1.7-7.2,4.9-9.5c3.3-2.3,7.8-3.4,13.4-3.4s11,1.1,16,3.4l-3.3,7.6
			c-5.2-2.1-9.4-3.2-13-3.2c-5.3,0-8,1.5-8,4.6c0,1.5,0.7,2.8,2.1,3.8c1.4,1,4.4,2.5,9.1,4.3c4,1.5,6.8,2.9,8.6,4.2
			c1.7,1.3,3.1,2.7,4,4.4C681.2,222.5,681.7,224.5,681.7,226.8z"/>
		<path class="st0" d="M713.5,241.3c-7.5,0-13.3-2.1-17.4-6.5c-4.2-4.4-6.3-10.3-6.3-17.9c0-7.8,1.9-14,5.8-18.4
			c3.9-4.4,9.2-6.7,16-6.7c6.3,0,11.3,1.9,14.9,5.7c3.7,3.8,5.5,9.1,5.5,15.8v5.5h-31.8c0.2,4.6,1.4,8.2,3.7,10.7
			c2.3,2.5,5.7,3.7,10,3.7c2.9,0,5.5-0.2,7.9-0.8s5.1-1.4,7.9-2.6v8.3c-2.5,1.2-5,2-7.5,2.5C719.6,241,716.8,241.3,713.5,241.3z
			 M711.6,199.5c-3.3,0-5.8,1-7.8,3.1c-1.9,2.1-3.1,5-3.5,9H722c-0.1-4-1-6.9-2.9-9C717.4,200.5,714.9,199.5,711.6,199.5z"/>
		<path class="st0" d="M785.6,240.4h-10.2v-29.4c0-3.7-0.7-6.4-2.2-8.3c-1.5-1.8-3.8-2.7-7.1-2.7c-4.3,0-7.4,1.3-9.4,3.8
			c-2,2.5-3,6.8-3,12.8v23.7h-10.2v-67.2h10.2v17.1c0,2.7-0.2,5.6-0.6,8.7h0.6c1.3-2.3,3.3-4,5.8-5.3c2.5-1.3,5.3-1.9,8.7-1.9
			c11.6,0,17.4,5.8,17.4,17.5L785.6,240.4L785.6,240.4z"/>
		<path class="st0" d="M799.1,180c0-1.8,0.5-3.2,1.5-4.2c1-1,2.4-1.4,4.3-1.4c1.7,0,3.2,0.5,4.1,1.4c1,1,1.5,2.4,1.5,4.2
			c0,1.7-0.5,3.1-1.5,4c-1,1-2.4,1.5-4.1,1.5c-1.8,0-3.3-0.5-4.3-1.5C799.6,183.1,799.1,181.7,799.1,180z M809.9,240.4h-10.2v-47.8
			h10.2V240.4z"/>
		<path class="st0" d="M848.7,191.8c2.1,0,3.7,0.2,5.1,0.4l-1,9.4c-1.4-0.3-2.9-0.6-4.5-0.6c-4,0-7.4,1.3-9.8,4s-3.8,6.1-3.8,10.3
			v24.9h-10.2v-47.8h7.9l1.3,8.4h0.6c1.6-2.9,3.7-5.1,6.2-6.7C842.9,192.6,845.7,191.8,848.7,191.8z"/>
	</g>
</g>
<g>
	<path class="st0" d="M1047.1,184.1v5.3l-25.8,54h-8.3l25.7-52.4v-0.2h-29v-6.7H1047.1z"/>
</g>
<image style="overflow:visible;" width="566" height="482" xlink:href="../../../../wtmesk_transparent.png"  transform="matrix(0.3291 0 0 0.3291 263.6322 97.9285)">
</image>
<g>
	<path class="st0" d="M491.4,159.3L479.7,113h6.3l5.5,23.4c1.4,5.8,2.6,11.5,3.4,16h0.1c0.8-4.6,2.2-10.1,3.8-16.1L505,113h6.2
		l5.6,23.5c1.3,5.5,2.5,11,3.2,15.9h0.1c1-5.1,2.3-10.2,3.7-16l6.1-23.3h6.1l-13.1,46.3h-6.2l-5.8-24.1c-1.4-5.9-2.4-10.4-3-15.1
		h-0.1c-0.8,4.6-1.9,9.1-3.6,15.1l-6.6,24.1H491.4z"/>
	<path class="st0" d="M569.6,142.4c0,12.3-8.5,17.6-16.6,17.6c-9,0-15.9-6.6-15.9-17.1c0-11.1,7.3-17.6,16.5-17.6
		C563.1,125.3,569.6,132.3,569.6,142.4z M543.2,142.8c0,7.3,4.2,12.8,10.1,12.8c5.8,0,10.1-5.4,10.1-12.9c0-5.6-2.8-12.8-10-12.8
		C546.3,129.9,543.2,136.5,543.2,142.8z"/>
	<path class="st0" d="M577.2,135.1c0-3.4-0.1-6.2-0.3-9h5.3l0.3,5.4h0.2c1.9-3.2,4.9-6.1,10.4-6.1c4.5,0,8,2.7,9.4,6.7h0.1
		c1-1.9,2.3-3.3,3.7-4.3c2-1.5,4.2-2.3,7.3-2.3c4.4,0,10.9,2.9,10.9,14.4v19.6h-5.9v-18.8c0-6.4-2.3-10.2-7.2-10.2
		c-3.4,0-6.1,2.5-7.1,5.5c-0.3,0.8-0.5,1.9-0.5,3v20.5H598v-19.9c0-5.3-2.3-9.1-6.9-9.1c-3.8,0-6.5,3-7.5,6c-0.3,0.9-0.5,1.9-0.5,3
		v20.1h-5.9V135.1z"/>
	<path class="st0" d="M637.8,143.8c0.1,8.2,5.4,11.5,11.4,11.5c4.3,0,6.9-0.8,9.2-1.7l1,4.3c-2.1,1-5.8,2.1-11.1,2.1
		c-10.2,0-16.3-6.7-16.3-16.8c0-10,5.9-17.9,15.6-17.9c10.9,0,13.7,9.5,13.7,15.7c0,1.2-0.1,2.2-0.2,2.8H637.8z M655.6,139.5
		c0.1-3.8-1.6-9.8-8.4-9.8c-6.1,0-8.8,5.6-9.3,9.8H655.6z"/>
	<path class="st0" d="M668.9,135.1c0-3.4-0.1-6.2-0.3-9h5.4l0.3,5.5h0.1c1.6-3.2,5.5-6.2,11-6.2c4.6,0,11.7,2.7,11.7,14.1v19.8h-6
		v-19.2c0-5.4-2-9.8-7.7-9.8c-4,0-7.1,2.8-8.1,6.2c-0.3,0.8-0.4,1.8-0.4,2.8v20h-6V135.1z"/>
	<path class="st0" d="M727.7,118.1h-14.1V113h34.3v5.1h-14.1v41.2h-6V118.1z"/>
	<path class="st0" d="M751.4,143.8c0.1,8.2,5.4,11.5,11.4,11.5c4.3,0,6.9-0.8,9.2-1.7l1,4.3c-2.1,1-5.8,2.1-11.1,2.1
		c-10.2,0-16.3-6.7-16.3-16.8c0-10,5.9-17.9,15.6-17.9c10.9,0,13.7,9.5,13.7,15.7c0,1.2-0.1,2.2-0.2,2.8H751.4z M769.1,139.5
		c0.1-3.8-1.6-9.8-8.4-9.8c-6.1,0-8.8,5.6-9.3,9.8H769.1z"/>
	<path class="st0" d="M806.1,158.1c-1.6,0.8-5.1,1.9-9.5,1.9c-10,0-16.6-6.8-16.6-17c0-10.2,7-17.7,17.9-17.7c3.6,0,6.7,0.9,8.4,1.7
		l-1.4,4.7c-1.4-0.8-3.7-1.6-7-1.6c-7.6,0-11.7,5.6-11.7,12.6c0,7.7,4.9,12.4,11.5,12.4c3.4,0,5.7-0.9,7.4-1.6L806.1,158.1z"/>
	<path class="st0" d="M813.2,110.6h6v20.7h0.1c1-1.7,2.5-3.2,4.3-4.3c1.8-1,3.9-1.7,6.2-1.7c4.5,0,11.6,2.7,11.6,14.2v19.8h-6v-19.1
		c0-5.4-2-9.9-7.7-9.9c-3.9,0-7,2.7-8.1,6c-0.3,0.8-0.4,1.7-0.4,2.9v20.1h-6V110.6z"/>
	<path class="st0" d="M890.5,139c-0.3-6.5-0.8-14.2-0.7-20h-0.2c-1.6,5.4-3.5,11.2-5.8,17.6l-8.2,22.5H871l-7.5-22
		c-2.2-6.5-4.1-12.5-5.4-18h-0.1c-0.1,5.8-0.5,13.5-0.9,20.5l-1.2,19.8h-5.7l3.2-46.3h7.6l7.9,22.4c1.9,5.7,3.5,10.8,4.7,15.6h0.2
		c1.2-4.7,2.8-9.8,4.9-15.6L887,113h7.6l2.9,46.3h-5.8L890.5,139z"/>
	<path class="st0" d="M925.3,159.3l-0.5-4.2h-0.2c-1.9,2.6-5.4,4.9-10.2,4.9c-6.7,0-10.2-4.7-10.2-9.5c0-8,7.1-12.4,20-12.4v-0.7
		c0-2.7-0.8-7.7-7.6-7.7c-3.1,0-6.3,1-8.7,2.5l-1.4-4c2.7-1.8,6.7-3,10.9-3c10.2,0,12.6,6.9,12.6,13.6v12.4c0,2.9,0.1,5.7,0.5,8
		H925.3z M924.4,142.4c-6.6-0.1-14.1,1-14.1,7.5c0,3.9,2.6,5.8,5.7,5.8c4.3,0,7.1-2.7,8-5.6c0.2-0.6,0.3-1.3,0.3-1.9V142.4z"/>
	<path class="st0" d="M946,141.3h0.1c0.8-1.2,2-2.6,3-3.8l9.8-11.5h7.3l-12.8,13.7l14.6,19.6h-7.3l-11.5-15.9l-3.1,3.4v12.5h-6
		v-48.8h6V141.3z"/>
	<path class="st0" d="M975.6,143.8c0.1,8.2,5.4,11.5,11.4,11.5c4.3,0,6.9-0.8,9.2-1.7l1,4.3c-2.1,1-5.8,2.1-11.1,2.1
		c-10.2,0-16.3-6.7-16.3-16.8c0-10,5.9-17.9,15.6-17.9c10.9,0,13.7,9.5,13.7,15.7c0,1.2-0.1,2.2-0.2,2.8H975.6z M993.3,139.5
		c0.1-3.8-1.6-9.8-8.4-9.8c-6.1,0-8.8,5.6-9.3,9.8H993.3z"/>
	<path class="st0" d="M1006.6,136.5c0-3.9-0.1-7.3-0.3-10.4h5.3l0.2,6.5h0.3c1.5-4.5,5.2-7.3,9.2-7.3c0.7,0,1.2,0.1,1.7,0.2v5.7
		c-0.6-0.1-1.2-0.2-2.1-0.2c-4.3,0-7.3,3.2-8.1,7.8c-0.1,0.8-0.3,1.8-0.3,2.8v17.7h-6V136.5z"/>
	<path class="st0" d="M1028.2,153.1c1.8,1.2,4.9,2.4,8,2.4c4.4,0,6.5-2.2,6.5-4.9c0-2.9-1.7-4.5-6.2-6.1c-6-2.1-8.8-5.4-8.8-9.4
		c0-5.4,4.3-9.8,11.5-9.8c3.4,0,6.3,1,8.2,2.1l-1.5,4.4c-1.3-0.8-3.7-1.9-6.8-1.9c-3.6,0-5.6,2.1-5.6,4.5c0,2.7,2,4,6.3,5.6
		c5.8,2.2,8.7,5.1,8.7,10c0,5.8-4.5,10-12.4,10c-3.6,0-7-0.9-9.3-2.3L1028.2,153.1z"/>
</g>
</svg>
