<?xml version="1.0" encoding="utf-8"?>
<!-- Generator: Adobe Illustrator 19.0.0, SVG Export Plug-In . SVG Version: 6.00 Build 0)  -->
<svg version="1.1" id="Layer_4" xmlns="http://www.w3.org/2000/svg" xmlns:xlink="http://www.w3.org/1999/xlink" x="0px" y="0px"
	 viewBox="207 -0.6 839 200" style="enable-background:new 207 -0.6 839 200;" xml:space="preserve">
<style type="text/css">
	.st0{fill:none;}
	.st1{fill:#FFC107;}
	.st2{fill:#0F9D58;}
	.st3{opacity:0.2;fill:#BF360C;enable-background:new    ;}
	.st4{opacity:0.2;fill:#263238;enable-background:new    ;}
	.st5{opacity:0.2;fill:#FFFFFF;enable-background:new    ;}
	.st6{fill:url(#XMLID_3_);}
	.st7{fill:url(#XMLID_5_);}
	.st8{fill:#4285F4;}
	.st9{fill:#DB4437;}
	.st10{opacity:0.2;fill:#1A237E;enable-background:new    ;}
	.st11{opacity:0.2;fill:#3E2723;enable-background:new    ;}
	.st12{fill:url(#XMLID_6_);}
	.st13{fill:#FAFAFA;}
	.st14{enable-background:new    ;}
</style>
<g id="XMLID_60_">
	<g id="XMLID_61_">
		<g id="XMLID_62_">
			<path id="XMLID_106_" class="st0" d="M331,88.7L281.8,3.6h-65.9l54.3,94l-54.3,94h65.9l49.3-85.2C334.1,101,334.1,94.2,331,88.7z
				"/>
			<path id="XMLID_105_" class="st1" d="M302.8,153.8l-15.6-27l-37.5,64.8H282l21.4-37L302.8,153.8z"/>
			<path id="XMLID_104_" class="st0" d="M331,88.7L281.8,3.6h-65.9l54.3,94l-54.3,94h65.9l49.3-85.2C334.1,101,334.1,94.2,331,88.7z
				"/>
			<path id="XMLID_103_" class="st2" d="M270.2,97.6l16.9,29.2l-37.5,64.8h-33.8L270.2,97.6z"/>
			<path id="XMLID_102_" class="st0" d="M331,88.7L281.8,3.6h-65.9l54.3,94l-54.3,94h65.9l49.3-85.2C334.1,101,334.1,94.2,331,88.7z
				"/>
			<path id="XMLID_101_" class="st3" d="M281.8,190.1h-31.3l-0.8,1.5H282l21.4-37l-0.5-0.8L281.8,190.1z"/>
			<path id="XMLID_100_" class="st0" d="M331,88.7L281.8,3.6h-65.9l54.3,94l-54.3,94h65.9l49.3-85.2C334.1,101,334.1,94.2,331,88.7z
				"/>
			<path id="XMLID_99_" class="st4" d="M216.8,190.1l-0.8,1.5h33.8l0.8-1.5H216.8z"/>
			<path id="XMLID_98_" class="st0" d="M331,88.7L281.8,3.6h-65.9l54.3,94l-54.3,94h65.9l49.3-85.2C334.1,101,334.1,94.2,331,88.7z"
				/>
			<path id="XMLID_96_" class="st5" d="M215.8,191.6h0.8l54-93.3l-0.5-0.8L215.8,191.6z"/>
			<path id="XMLID_94_" class="st0" d="M331,88.7L281.8,3.6h-65.9l54.3,94l-54.3,94h65.9l49.3-85.2C334.1,101,334.1,94.2,331,88.7z"
				/>
			
				<radialGradient id="XMLID_3_" cx="302.9521" cy="-2520.7959" r="65.0253" gradientTransform="matrix(1 0 0 1 0 2674.7502)" gradientUnits="userSpaceOnUse">
				<stop  offset="0" style="stop-color:#BF360C;stop-opacity:0.2"/>
				<stop  offset="1" style="stop-color:#BF360C;stop-opacity:2.000000e-02"/>
			</radialGradient>
			<path id="XMLID_92_" class="st6" d="M303.2,154.6l-16.1-27.7l-3.9,6.8L303.2,154.6z"/>
			<path id="XMLID_90_" class="st0" d="M331,88.7L281.8,3.6h-65.9l54.3,94l-54.3,94h65.9l49.3-85.2C334.1,101,334.1,94.2,331,88.7z"
				/>
			
				<radialGradient id="XMLID_5_" cx="302.7669" cy="-2520.3843" r="65.5527" gradientTransform="matrix(1 0 0 1 0 2674.7502)" gradientUnits="userSpaceOnUse">
				<stop  offset="0" style="stop-color:#263238;stop-opacity:0.2"/>
				<stop  offset="1" style="stop-color:#263238;stop-opacity:2.000000e-02"/>
			</radialGradient>
			<path id="XMLID_89_" class="st7" d="M283.1,133.6l3.9-6.8l-16.8-29.2l-8,13.9L283.1,133.6z"/>
			<path id="XMLID_88_" class="st0" d="M331,88.7L281.8,3.6h-65.9l54.3,94l-54.3,94h65.9l49.3-85.2C334.1,101,334.1,94.2,331,88.7z"
				/>
			<g id="XMLID_85_">
				<g id="XMLID_86_">
					<path id="XMLID_87_" class="st8" d="M249.6,3.6h-33.8l87.3,151l16.8-29.2L249.6,3.6z"/>
				</g>
			</g>
			<path id="XMLID_84_" class="st0" d="M331,88.7L281.8,3.6h-65.9l54.3,94l-54.3,94h65.9l49.3-85.2C334.1,101,334.1,94.2,331,88.7z"
				/>
			<path id="XMLID_83_" class="st9" d="M331,106.4c3.2-5.5,3.2-12.2,0-17.7L281.8,3.6h-32.2L320,125.4L331,106.4z"/>
			<path id="XMLID_82_" class="st0" d="M331,88.7L281.8,3.6h-65.9l54.3,94l-54.3,94h65.9l49.3-85.2C334.1,101,334.1,94.2,331,88.7z"
				/>
			<path id="XMLID_71_" class="st10" d="M320,125.3l-0.4-0.8L303.1,153L216.8,3.6H216l87.3,151L320,125.3z"/>
			<path id="XMLID_69_" class="st0" d="M331,88.7L281.8,3.6h-65.9l54.3,94l-54.3,94h65.9l49.3-85.2C334.1,101,334.1,94.2,331,88.7z"
				/>
			<path id="XMLID_67_" class="st5" d="M281.8,5.1L331,90.3c1.4,2.5,2.2,5.3,2.4,8.1c0.1-3.3-0.7-6.6-2.4-9.6L281.8,3.6h-65.9
				l0.8,1.5H281.8L281.8,5.1z"/>
			<path id="XMLID_66_" class="st0" d="M331,88.7L281.8,3.6h-65.9l54.3,94l-54.3,94h65.9l49.3-85.2C334.1,101,334.1,94.2,331,88.7z"
				/>
			<path id="XMLID_65_" class="st11" d="M320,125.3l10.9-18.9c1.7-2.9,2.4-6.3,2.4-9.6c-0.1,2.8-0.8,5.5-2.4,8.1l-11.4,19.7
				L320,125.3z"/>
			<path id="XMLID_64_" class="st0" d="M331,88.7L281.8,3.6h-65.9l54.3,94l-54.3,94h65.9l49.3-85.2C334.1,101,334.1,94.2,331,88.7z"
				/>
			
				<radialGradient id="XMLID_6_" cx="214.4024" cy="-2669.719" r="197.3661" gradientTransform="matrix(1 0 0 1 0 2674.7502)" gradientUnits="userSpaceOnUse">
				<stop  offset="0" style="stop-color:#FFFFFF;stop-opacity:0.1"/>
				<stop  offset="1" style="stop-color:#FFFFFF;stop-opacity:0"/>
			</radialGradient>
			<path id="XMLID_63_" class="st12" d="M331,88.7L281.8,3.6h-65.9l54.3,94l-54.3,94h65.9l49.3-85.2C334.1,101,334.1,94.2,331,88.7z
				"/>
		</g>
	</g>
</g>
<g id="XMLID_7_">
	<path id="XMLID_2_" class="st13" d="M446.2,49.6c0,10.7-3.1,19.3-9.5,25.5c-7.2,7.5-16.6,11.4-28.2,11.4
		c-11.1,0-20.5-3.8-28.2-11.5c-7.7-7.6-11.6-17.2-11.6-28.5s3.9-20.8,11.6-28.5s17.1-11.5,28.2-11.5c5.5,0,10.8,1.1,15.8,3.2
		c5,2.2,9,5,11.9,8.6l-6.8,6.8c-5.1-6.1-12-9.1-20.9-9.1c-8,0-15.1,2.8-20.9,8.5c-5.9,5.7-8.8,13-8.8,22.1s2.9,16.4,8.8,22.1
		c5.9,5.7,12.8,8.5,20.9,8.5c8.6,0,15.7-2.8,21.4-8.6c3.7-3.7,5.9-8.9,6.5-15.6h-27.9v-9.2h37.2C446,45.8,446.2,47.7,446.2,49.6
		L446.2,49.6z"/>
	<path id="XMLID_4_" class="st13" d="M456,84.8V8.2h23.5c11.7,0,21.2,3.5,28.3,10.7c7,7.1,10.6,16.3,10.6,27.7s-3.5,20.6-10.6,27.7
		c-7,7.1-16.4,10.7-28.3,10.7L456,84.8L456,84.8z M465.8,75.4h13.6c8.8,0,15.9-2.5,21-7.6c5.2-5.1,7.7-12.1,7.7-21.3
		c0-9.1-2.5-16.1-7.7-21.2s-12.2-7.6-21-7.6h-13.6C465.8,17.6,465.8,75.4,465.8,75.4z"/>
	<path id="XMLID_8_" class="st13" d="M602,49.6c0,10.7-3.1,19.3-9.5,25.5c-7.2,7.5-16.6,11.4-28.2,11.4c-11.1,0-20.5-3.8-28.2-11.5
		c-7.7-7.6-11.6-17.2-11.6-28.5S528.4,25.7,536,18s17.1-11.5,28.2-11.5c5.5,0,10.8,1.1,15.8,3.2c5,2.2,9,5,11.9,8.6l-6.8,6.8
		c-5.1-6.1-12-9.1-20.9-9.1c-8,0-15.1,2.8-20.9,8.5c-5.9,5.7-8.8,13-8.8,22.1s2.9,16.4,8.8,22.1c5.9,5.7,12.8,8.5,20.9,8.5
		c8.6,0,15.7-2.8,21.4-8.6c3.7-3.7,5.9-8.9,6.5-15.6h-27.9v-9.2h37.2C601.8,45.8,602,47.7,602,49.6L602,49.6z"/>
	<path id="XMLID_10_" class="st13" d="M637.3,84.8V8.2h23.5c11.7,0,21.2,3.5,28.3,10.7c7,7.1,10.6,16.3,10.6,27.7
		s-3.5,20.6-10.6,27.7c-7,7.1-16.4,10.7-28.3,10.7L637.3,84.8L637.3,84.8z M647.3,75.4h13.6c8.8,0,15.9-2.5,21-7.6
		c5.2-5.1,7.7-12.1,7.7-21.3c0-9.1-2.5-16.1-7.7-21.2s-12.2-7.6-21-7.6h-13.6C647.3,17.6,647.3,75.4,647.3,75.4z"/>
	<path id="XMLID_13_" class="st13" d="M732,86.6c-7.9,0-14.4-2.6-19.3-7.9c-5-5.3-7.4-11.9-7.4-20.1c0-7.6,2.4-14.2,7.2-19.7
		s11-8.2,18.5-8.2c7.7,0,14,2.5,18.7,7.6s7,11.8,7,20.4l-0.1,1.9h-41.4c0.3,5.3,2.1,9.5,5.3,12.5s7,4.6,11.4,4.6c7,0,11.8-3,14.4-9
		l8.8,3.6c-1.8,4.1-4.5,7.4-8.4,10.2C742.5,85.2,737.8,86.6,732,86.6L732,86.6z M746,52.3c-0.2-3-1.6-5.9-4.1-8.6s-6.3-4.1-11.3-4.1
		c-3.6,0-6.8,1.2-9.5,3.4c-2.6,2.3-4.5,5.4-5.5,9.2L746,52.3L746,52.3z"/>
	<path id="XMLID_16_" class="st13" d="M777.3,84.8l-21.2-52.5h10.8L782.4,73h0.2l15.7-40.7h10.5l-21.4,52.5H777.3L777.3,84.8z"/>
	<path id="XMLID_18_" class="st13" d="M824,84.8h-9.9V8.2h44.7v9.4h-34.9v25.2h31.5V52h-31.5L824,84.8L824,84.8z"/>
	<path id="XMLID_20_" class="st13" d="M888.9,86.6c-7.9,0-14.4-2.6-19.3-7.9c-5-5.3-7.4-11.9-7.4-20.1c0-7.6,2.4-14.2,7.2-19.7
		c4.8-5.5,11-8.2,18.5-8.2c7.7,0,14,2.5,18.7,7.6s7,11.8,7,20.4l-0.1,1.9H872c0.3,5.3,2.1,9.5,5.3,12.5c3.2,3,7,4.6,11.4,4.6
		c7,0,11.8-3,14.4-9l8.8,3.6c-1.8,4.1-4.5,7.4-8.4,10.2C899.4,85.2,894.5,86.6,888.9,86.6L888.9,86.6z M903,52.3
		c-0.2-3-1.6-5.9-4.1-8.6s-6.3-4.1-11.3-4.1c-3.6,0-6.8,1.2-9.5,3.4c-2.6,2.3-4.5,5.4-5.5,9.2L903,52.3L903,52.3z"/>
	<path id="XMLID_27_" class="st13" d="M939.5,86.6c-5.9,0-10.7-1.5-14.5-4.3s-6.7-6.5-8.4-10.7l8.8-3.6c2.7,6.6,7.5,9.9,14.2,9.9
		c3,0,5.6-0.7,7.5-2.1c2-1.4,2.9-3.1,2.9-5.4c0-3.4-2.3-5.8-7.1-6.9L932.3,61c-3.3-0.9-6.6-2.4-9.5-4.9c-3-2.3-4.5-5.6-4.5-9.7
		c0-4.6,2.1-8.4,6.2-11.3s9-4.3,14.6-4.3c4.6,0,8.8,1.1,12.4,3.1c3.6,2.2,6.3,5.1,7.8,9l-8.6,3.5c-2-4.6-6-6.9-11.9-6.9
		c-2.9,0-5.4,0.6-7.3,1.9c-2,1.2-3,2.8-3,4.9c0,3,2.3,5,6.9,6.1l10.4,2.4c4.9,1.2,8.6,3.1,11,5.9s3.5,6,3.5,9.4
		c0,4.7-2,8.6-5.8,11.7C950.5,85,945.5,86.6,939.5,86.6L939.5,86.6z"/>
	<path id="XMLID_29_" class="st13" d="M989.9,85.7c-5.5,0-9.7-1.5-12.6-4.4s-4.3-7-4.3-12.4V41.4h-9.2v-9h9.2V16.3h9.9v16.1h12.8v9
		h-12.8v26.7c0,5.7,2.3,8.6,7,8.6c1.8,0,3.3-0.3,4.5-0.9l3.4,8.4C995.5,85.2,993,85.7,989.9,85.7L989.9,85.7z"/>
	<path id="XMLID_46_" class="st13" d="M894.5,195.5h-46.7v-9.9c14-14.1,22.9-23.2,26.9-27.5c3.5-3.9,5.9-6.9,7-8.9
		c1.2-2.1,1.9-4.5,1.9-7.5s-1.2-5.8-3.6-8.1s-5.7-3.5-9.8-3.5c-3.7,0-6.8,1.1-9,3.2c-2.2,2.1-3.7,4.5-4.4,7l-9-3.6
		c1.2-3.8,3.7-7.5,7.6-11c3.8-3.4,8.8-5.1,15-5.1c6.8,0,12.3,2.1,16.7,6.2c4.3,4.1,6.6,9.1,6.6,14.9c0,7.1-3.9,14.8-11.6,22.9
		l-21.4,21.5h34L894.5,195.5L894.5,195.5z"/>
	<path id="XMLID_48_" class="st13" d="M951,186.2c-5.4,7.3-12.5,11.1-21.3,11.1s-15.9-3.7-21.3-11.1c-5.4-7.3-8.1-16.4-8.1-27.3
		c0-11,2.7-20.1,8.1-27.3c5.4-7.3,12.5-11,21.3-11s15.9,3.6,21.3,11c5.4,7.3,8.1,16.4,8.1,27.3S956.4,178.8,951,186.2z M929.5,187.8
		c5.9,0,10.6-2.7,14.1-8.2s5.3-12.3,5.3-20.7s-1.8-15.3-5.3-20.7c-3.5-5.5-8.2-8.2-14.1-8.2c-6,0-10.7,2.7-14.1,8.2
		c-3.5,5.5-5.3,12.3-5.3,20.7c0,8.3,1.8,15.2,5.3,20.7C919,185.1,923.6,187.8,929.5,187.8z"/>
	<path id="XMLID_51_" class="st13" d="M990.1,195.5h-9.9v-61l-14.2,6.2l-3.7-8.3l21.5-10.1h6.4L990.1,195.5L990.1,195.5L990.1,195.5
		z"/>
	<g>
		<path class="st13" d="M385,193.2h-45v-79.6h45v11h-32v21.6h30v10.9h-30v25h32V193.2z"/>
		<path class="st13" d="M441.2,176c0,5.9-2.1,10.4-6.4,13.5c-4.3,3.1-10.4,4.7-18.4,4.7s-14.5-1.2-19.3-3.6v-11
			c7.1,3.3,13.7,4.9,19.7,4.9c7.9,0,11.8-2.4,11.8-7.1c0-1.5-0.4-2.8-1.3-3.8s-2.3-2.1-4.3-3.2s-4.8-2.3-8.3-3.7
			c-6.9-2.7-11.6-5.4-14.1-8.1s-3.7-6.2-3.7-10.4c0-5.1,2.1-9.1,6.2-12c4.1-2.9,9.8-4.3,16.9-4.3s13.8,1.4,20.1,4.3l-4.1,9.6
			c-6.5-2.7-11.9-4-16.4-4c-6.7,0-10.1,1.9-10.1,5.8c0,1.9,0.9,3.5,2.6,4.8c1.8,1.3,5.6,3.1,11.5,5.4c5,1.9,8.6,3.7,10.8,5.3
			s3.9,3.4,5,5.5S441.2,173.1,441.2,176z"/>
		<path class="st13" d="M467.5,161.4l7.2-9l18.2-19.4h14.7l-24.2,25.8l25.7,34.3h-15l-19.3-26.4l-7,5.8v20.6H455v-84.6h12.7v41.3
			l-0.7,11.6L467.5,161.4L467.5,161.4z"/>
		<path class="st13" d="M518,117.1c0-2.3,0.6-4,1.9-5.3s3-1.8,5.4-1.8c2.2,0,4,0.6,5.2,1.8c1.3,1.2,1.9,3,1.9,5.3
			c0,2.2-0.6,3.9-1.9,5.1c-1.3,1.3-3,1.9-5.2,1.9c-2.3,0-4.1-0.6-5.4-1.9C518.8,121,518,119.2,518,117.1z M531.5,193.2h-12.8V133
			h12.8V193.2z"/>
		<path class="st13" d="M590.3,176c0,5.9-2.1,10.4-6.4,13.5s-10.4,4.7-18.4,4.7s-14.5-1.2-19.3-3.6v-11c7.1,3.3,13.7,4.9,19.7,4.9
			c7.9,0,11.8-2.4,11.8-7.1c0-1.5-0.4-2.8-1.3-3.8c-0.9-1-2.3-2.1-4.3-3.2s-4.8-2.3-8.3-3.7c-6.9-2.7-11.6-5.4-14.1-8.1
			c-2.4-2.7-3.7-6.2-3.7-10.4c0-5.1,2.1-9.1,6.2-12c4.1-2.9,9.8-4.3,16.9-4.3c7.1,0,13.8,1.4,20.1,4.3l-4.1,9.6
			c-6.5-2.7-11.9-4-16.4-4c-6.7,0-10.1,1.9-10.1,5.8c0,1.9,0.9,3.5,2.6,4.8c1.8,1.3,5.6,3.1,11.5,5.4c5,1.9,8.6,3.7,10.8,5.3
			s3.9,3.4,5,5.5C589.8,170.6,590.3,173.1,590.3,176z"/>
		<path class="st13" d="M630.3,194.3c-9.4,0-16.7-2.7-21.9-8.2c-5.3-5.5-7.9-13-7.9-22.5c0-9.8,2.4-17.6,7.3-23.2
			c4.9-5.6,11.6-8.4,20.2-8.4c7.9,0,14.2,2.4,18.8,7.2s6.9,11.5,6.9,19.9v6.9h-40.1c0.2,5.8,1.8,10.3,4.7,13.5s7.2,4.7,12.6,4.7
			c3.6,0,6.9-0.3,9.9-1s6.4-1.8,9.9-3.3v10.4c-3.1,1.5-6.3,2.5-9.5,3.2C638,193.9,634.5,194.3,630.3,194.3z M628,141.6
			c-4.1,0-7.3,1.3-9.8,3.9c-2.4,2.6-3.9,6.3-4.4,11.3H641c-0.1-5-1.3-8.7-3.6-11.3C635.3,142.9,632,141.6,628,141.6z"/>
		<path class="st13" d="M721.2,193.2h-12.8v-37c0-4.6-0.9-8.1-2.8-10.4c-1.9-2.3-4.8-3.4-8.9-3.4c-5.4,0-9.3,1.6-11.8,4.8
			s-3.8,8.6-3.8,16.1v29.9h-12.8v-84.6h12.8v21.5c0,3.4-0.2,7.1-0.7,11h0.8c1.7-2.9,4.2-5.1,7.3-6.7s6.7-2.4,10.9-2.4
			c14.6,0,21.9,7.3,21.9,22L721.2,193.2L721.2,193.2z"/>
		<path class="st13" d="M738.2,117.1c0-2.3,0.6-4,1.9-5.3c1.3-1.2,3-1.8,5.4-1.8c2.2,0,4,0.6,5.2,1.8c1.3,1.2,1.9,3,1.9,5.3
			c0,2.2-0.6,3.9-1.9,5.1c-1.3,1.3-3,1.9-5.2,1.9c-2.3,0-4.1-0.6-5.4-1.9C738.8,121,738.2,119.2,738.2,117.1z M751.8,193.2H739V133
			h12.8V193.2z"/>
		<path class="st13" d="M800.5,131.9c2.6,0,4.7,0.2,6.4,0.5l-1.3,11.9c-1.8-0.4-3.7-0.7-5.7-0.7c-5.1,0-9.3,1.7-12.4,5
			c-3.1,3.3-4.8,7.7-4.8,13V193H770v-60.2h10l1.7,10.6h0.7c2-3.6,4.6-6.4,7.8-8.5C793.3,133,797,131.9,800.5,131.9z"/>
	</g>
</g>
<rect x="993.6" y="119.9" class="st0" width="94.8" height="91.2"/>
<g class="st14">
	<path class="st13" d="M1045.6,128.8l-29.4,66h-9.5l29.3-63.7h-38.5v-7.4h48V128.8z"/>
</g>
</svg>
